<svg xmlns="http://www.w3.org/2000/svg" viewBox="0 0 1200 750" width="1200" height="750" role="img" aria-label="JP Fitness gym website preview">
  <defs>
    <linearGradient id="bg" x1="0" y1="0" x2="1" y2="1">
      <stop offset="0" stop-color="#F8FAFC" />
      <stop offset="1" stop-color="#EEF2FF" />
    </linearGradient>
  </defs>
  <rect width="1200" height="750" fill="url(#bg)" />
  <rect x="90" y="120" width="1020" height="510" rx="26" fill="#FFFFFF" stroke="#E2E8F0" stroke-width="2" />
  <circle cx="132" cy="162" r="9" fill="#CBD5E1" />
  <circle cx="162" cy="162" r="9" fill="#CBD5E1" />
  <circle cx="192" cy="162" r="9" fill="#CBD5E1" />
  <rect x="232" y="153" width="320" height="18" rx="9" fill="#EEF2FF" />
  <rect x="930" y="200" width="140" height="34" rx="17" fill="#4F46E5" />
  <text x="1000" y="223" text-anchor="middle" font-family="Montserrat, system-ui, sans-serif" font-size="16" font-weight="700" fill="#FFFFFF">Case study</text>
  <text x="132" y="320" font-family="Montserrat, system-ui, sans-serif" font-size="66" font-weight="800" fill="#0F172A">JP Fitness</text>
  <text x="132" y="372" font-family="Montserrat, system-ui, sans-serif" font-size="28" font-weight="500" fill="#475569">Fast, SEO-optimised gym website</text>
  <g>
    <rect x="132" y="470" width="90" height="100" rx="10" fill="#C7D2FE" />
    <rect x="246" y="430" width="90" height="140" rx="10" fill="#818CF8" />
    <rect x="360" y="400" width="90" height="170" rx="10" fill="#4F46E5" />
  </g>
  <g fill="#EEF2FF">
    <rect x="700" y="420" width="370" height="20" rx="10" />
    <rect x="700" y="460" width="300" height="20" rx="10" />
    <rect x="700" y="500" width="340" height="20" rx="10" />
  </g>
</svg>
